<svg xmlns="http://www.w3.org/2000/svg" width="900" height="560" viewBox="0 0 900 560" fill="none">
  <defs>
    <linearGradient id="bg" x1="62" y1="46" x2="842" y2="514" gradientUnits="userSpaceOnUse">
      <stop stop-color="#22D3EE" stop-opacity="0.16"/>
      <stop offset="0.45" stop-color="#60A5FA" stop-opacity="0.10"/>
      <stop offset="1" stop-color="#A855F7" stop-opacity="0.12"/>
    </linearGradient>
    <linearGradient id="bar" x1="0" y1="0" x2="1" y2="0">
      <stop stop-color="#22D3EE" stop-opacity="0.9"/>
      <stop offset="0.55" stop-color="#60A5FA" stop-opacity="0.65"/>
      <stop offset="1" stop-color="#A855F7" stop-opacity="0.75"/>
    </linearGradient>
  </defs>

  <rect x="18" y="18" width="864" height="524" rx="34" fill="rgba(255,255,255,0.05)" stroke="rgba(255,255,255,0.14)"/>
  <rect x="36" y="36" width="828" height="488" rx="28" fill="rgba(8,12,28,0.92)" stroke="rgba(34,211,238,0.18)"/>
  <rect x="36" y="36" width="828" height="488" rx="28" fill="url(#bg)"/>

  <rect x="64" y="72" width="340" height="56" rx="16" fill="rgba(255,255,255,0.06)" stroke="rgba(255,255,255,0.12)"/>
  <rect x="84" y="90" width="220" height="10" rx="5" fill="rgba(226,232,240,0.30)"/>
  <rect x="84" y="108" width="120" height="8" rx="4" fill="rgba(226,232,240,0.18)"/>

  <rect x="64" y="148" width="772" height="4" rx="2" fill="rgba(255,255,255,0.08)"/>
  <rect x="64" y="148" width="368" height="4" rx="2" fill="url(#bar)"/>

  <rect x="64" y="184" width="772" height="124" rx="22" fill="rgba(255,255,255,0.05)" stroke="rgba(255,255,255,0.10)"/>
  <rect x="88" y="210" width="286" height="10" rx="5" fill="rgba(226,232,240,0.22)"/>
  <rect x="88" y="232" width="410" height="9" rx="4.5" fill="rgba(226,232,240,0.16)"/>
  <rect x="88" y="252" width="372" height="9" rx="4.5" fill="rgba(226,232,240,0.14)"/>
  <rect x="88" y="272" width="330" height="9" rx="4.5" fill="rgba(226,232,240,0.12)"/>

  <rect x="64" y="328" width="372" height="172" rx="24" fill="rgba(255,255,255,0.04)" stroke="rgba(34,211,238,0.16)"/>
  <rect x="88" y="356" width="244" height="10" rx="5" fill="rgba(226,232,240,0.22)"/>
  <rect x="88" y="380" width="310" height="9" rx="4.5" fill="rgba(226,232,240,0.14)"/>
  <rect x="88" y="400" width="286" height="9" rx="4.5" fill="rgba(226,232,240,0.12)"/>
  <rect x="88" y="420" width="260" height="9" rx="4.5" fill="rgba(226,232,240,0.10)"/>
  <rect x="88" y="448" width="142" height="30" rx="15" fill="rgba(16,185,129,0.14)" stroke="rgba(16,185,129,0.30)"/>

  <rect x="464" y="328" width="372" height="172" rx="24" fill="rgba(255,255,255,0.04)" stroke="rgba(168,85,247,0.14)"/>
  <rect x="488" y="356" width="232" height="10" rx="5" fill="rgba(226,232,240,0.22)"/>
  <rect x="488" y="380" width="310" height="9" rx="4.5" fill="rgba(226,232,240,0.14)"/>
  <rect x="488" y="400" width="286" height="9" rx="4.5" fill="rgba(226,232,240,0.12)"/>
  <rect x="488" y="420" width="260" height="9" rx="4.5" fill="rgba(226,232,240,0.10)"/>
  <rect x="488" y="448" width="158" height="30" rx="15" fill="rgba(34,211,238,0.12)" stroke="rgba(34,211,238,0.22)"/>
</svg>
