<svg xmlns="http://www.w3.org/2000/svg" width="1200" height="900" viewBox="0 0 1200 900" fill="none">
  <defs>
    <linearGradient id="g1" x1="141" y1="92" x2="1071" y2="836" gradientUnits="userSpaceOnUse">
      <stop stop-color="#22D3EE" stop-opacity="0.75"/>
      <stop offset="0.42" stop-color="#60A5FA" stop-opacity="0.42"/>
      <stop offset="1" stop-color="#A855F7" stop-opacity="0.55"/>
    </linearGradient>
    <radialGradient id="r1" cx="0" cy="0" r="1" gradientUnits="userSpaceOnUse" gradientTransform="translate(824 274) rotate(119.6) scale(520 650)">
      <stop stop-color="#22D3EE" stop-opacity="0.22"/>
      <stop offset="1" stop-color="#22D3EE" stop-opacity="0"/>
    </radialGradient>
    <radialGradient id="r2" cx="0" cy="0" r="1" gradientUnits="userSpaceOnUse" gradientTransform="translate(336 690) rotate(-35) scale(560 620)">
      <stop stop-color="#A855F7" stop-opacity="0.18"/>
      <stop offset="1" stop-color="#A855F7" stop-opacity="0"/>
    </radialGradient>
    <filter id="blur" x="-20%" y="-20%" width="140%" height="140%">
      <feGaussianBlur stdDeviation="18"/>
    </filter>
  </defs>

  <rect width="1200" height="900" fill="#060A1A"/>
  <rect x="110" y="110" width="980" height="680" rx="44" fill="url(#g1)" opacity="0.10"/>
  <rect x="130" y="130" width="940" height="640" rx="40" fill="#0A1126" stroke="rgba(255,255,255,0.14)"/>

  <g opacity="0.95">
    <circle cx="860" cy="260" r="260" fill="url(#r1)"/>
    <circle cx="340" cy="690" r="300" fill="url(#r2)"/>
  </g>

  <g filter="url(#blur)" opacity="0.55">
    <path d="M270 352C410 210 578 172 708 256C830 334 936 310 1020 230" stroke="#22D3EE" stroke-width="22" stroke-linecap="round"/>
    <path d="M210 580C378 458 536 444 662 536C804 642 936 632 1040 520" stroke="#60A5FA" stroke-width="18" stroke-linecap="round"/>
    <path d="M236 706C396 622 548 620 666 694C784 766 934 778 1036 714" stroke="#A855F7" stroke-width="18" stroke-linecap="round"/>
  </g>

  <g opacity="0.92">
    <rect x="194" y="206" width="380" height="104" rx="22" fill="rgba(255,255,255,0.06)" stroke="rgba(255,255,255,0.14)"/>
    <rect x="214" y="230" width="190" height="14" rx="7" fill="rgba(34,211,238,0.65)"/>
    <rect x="214" y="256" width="310" height="10" rx="5" fill="rgba(226,232,240,0.35)"/>
    <rect x="214" y="276" width="272" height="10" rx="5" fill="rgba(226,232,240,0.26)"/>

    <rect x="194" y="330" width="520" height="148" rx="26" fill="rgba(255,255,255,0.05)" stroke="rgba(255,255,255,0.12)"/>
    <rect x="214" y="360" width="292" height="12" rx="6" fill="rgba(226,232,240,0.32)"/>
    <rect x="214" y="386" width="410" height="10" rx="5" fill="rgba(226,232,240,0.22)"/>
    <rect x="214" y="408" width="378" height="10" rx="5" fill="rgba(226,232,240,0.20)"/>
    <rect x="214" y="430" width="330" height="10" rx="5" fill="rgba(226,232,240,0.18)"/>
    <rect x="610" y="350" width="84" height="28" rx="14" fill="rgba(16,185,129,0.18)" stroke="rgba(16,185,129,0.35)"/>

    <rect x="740" y="248" width="276" height="368" rx="30" fill="rgba(255,255,255,0.04)" stroke="rgba(34,211,238,0.18)"/>
    <rect x="768" y="282" width="160" height="12" rx="6" fill="rgba(226,232,240,0.28)"/>
    <rect x="768" y="308" width="212" height="10" rx="5" fill="rgba(226,232,240,0.18)"/>

    <rect x="768" y="350" width="220" height="74" rx="18" fill="rgba(34,211,238,0.10)" stroke="rgba(34,211,238,0.18)"/>
    <circle cx="804" cy="386" r="14" fill="rgba(34,211,238,0.55)"/>
    <rect x="828" y="375" width="132" height="10" rx="5" fill="rgba(226,232,240,0.26)"/>
    <rect x="828" y="395" width="110" height="10" rx="5" fill="rgba(226,232,240,0.18)"/>

    <rect x="768" y="448" width="220" height="74" rx="18" fill="rgba(255,255,255,0.04)" stroke="rgba(255,255,255,0.10)"/>
    <circle cx="804" cy="484" r="14" fill="rgba(16,185,129,0.55)"/>
    <rect x="828" y="473" width="140" height="10" rx="5" fill="rgba(226,232,240,0.22)"/>
    <rect x="828" y="493" width="120" height="10" rx="5" fill="rgba(226,232,240,0.16)"/>
  </g>
</svg>
